<svg width="20" height="20" viewBox="0 0 20 20" fill="none" xmlns="http://www.w3.org/2000/svg">
<path d="M1.25 3.75C1.25 3.05859 1.80859 2.5 2.5 2.5H17.5C18.1914 2.5 18.75 3.05859 18.75 3.75C18.75 4.44141 18.1914 5 17.5 5H2.5C1.80859 5 1.25 4.44141 1.25 3.75ZM6.85547 10C6.85547 9.30859 7.41406 8.75 8.10547 8.75H17.5C18.1914 8.75 18.75 9.30859 18.75 10C18.75 10.6914 18.1914 11.25 17.5 11.25H8.10547C7.41406 11.25 6.85547 10.6914 6.85547 10ZM18.75 16.25C18.75 16.9414 18.1914 17.5 17.5 17.5H5.60547C4.91406 17.5 4.35547 16.9414 4.35547 16.25C4.35547 15.5586 4.91406 15 5.60547 15H17.5C18.1914 15 18.75 15.5586 18.75 16.25Z" fill="#9D6B53"/>
</svg>
