<svg width="145" height="220" viewBox="0 0 145 220" fill="none" xmlns="http://www.w3.org/2000/svg">
<rect width="145" height="220" fill="#9D6B53"/>
<path d="M53.1741 80.0092C48.0742 79.875 42.3032 81.217 36.2639 83.9012C34.7876 84.5722 33.8481 86.0485 33.8481 87.7932V135.84C33.8481 137.316 35.3244 138.39 36.8007 137.718C53.7109 129.8 66.3264 139.195 66.8632 139.597C67.2659 139.866 67.6685 140 68.2053 140C69.8158 140 70.3526 138.524 70.3526 137.987V86.4511C70.3526 85.6459 69.95 84.9748 69.4132 84.5722C69.1448 84.438 62.837 80.1434 53.1741 80.0092ZM108.602 83.9012C102.562 81.217 96.6573 79.875 91.6917 80.0092C82.0287 80.1434 75.8551 84.438 75.4525 84.5722C74.9157 84.9748 74.6473 85.6459 74.6473 86.4511V137.853C74.6473 138.524 75.0499 140 76.7946 140C77.1972 140 77.5998 139.866 78.0025 139.597C78.5393 139.195 91.1548 129.8 108.065 137.718C109.541 138.39 111.152 137.316 111.152 135.84V87.7932C111.018 86.0485 110.078 84.5722 108.602 83.9012Z" fill="white"/>
</svg>
