<svg width="200" height="200" viewBox="0 0 200 200" fill="none" xmlns="http://www.w3.org/2000/svg">
<g clip-path="url(#clip0_66_755)">
<path d="M10.3759 152.268C11.9368 136.335 21.3708 120.432 36.3815 114.869C30.8347 131.37 31.3035 149.302 37.705 165.491C40.1964 171.725 43.6166 178.4 41.5929 184.802C40.3338 188.785 37.0805 191.892 33.4052 193.878C29.7297 195.864 25.6194 196.872 21.5604 197.86L20.7744 198.545C13.9128 184.082 8.81499 168.2 10.3759 152.268Z" fill="#F0F0F0"/>
<path d="M36.5396 115.165C28.0644 125.169 22.7301 137.944 21.7974 151.042C21.5958 153.874 21.6377 156.764 22.3277 159.531C23.021 162.224 24.4227 164.682 26.3872 166.65C28.1821 168.522 30.2348 170.228 31.5435 172.504C32.9229 174.902 33.0455 177.665 32.212 180.272C31.1921 183.462 29.0868 186.096 26.9384 188.6C24.553 191.38 22.0314 194.23 21.0812 197.858C20.9661 198.297 20.2907 198.093 20.4057 197.654C22.0588 191.342 28.0474 187.625 30.8004 181.907C32.085 179.239 32.5734 176.167 31.2322 173.421C30.0595 171.02 27.9442 169.258 26.1105 167.379C24.185 165.405 22.6913 163.224 21.8818 160.566C21.0537 157.847 20.8987 154.952 21.0271 152.128C21.3659 145.726 22.7093 139.416 25.0081 133.431C27.5937 126.586 31.3313 120.233 36.0591 114.648C36.3519 114.303 36.8305 114.822 36.5396 115.165L36.5396 115.165Z" fill="white"/>
<path d="M21.8759 146.769C19.6827 146.296 17.7287 145.06 16.363 143.28C14.9973 141.5 14.3088 139.292 14.4204 137.052C14.4258 136.96 14.4664 136.875 14.5337 136.813C14.6011 136.751 14.6898 136.717 14.7813 136.719C14.8728 136.722 14.9598 136.759 15.0241 136.824C15.0884 136.889 15.1249 136.977 15.1259 137.068C15.0181 139.155 15.6597 141.211 16.9348 142.866C18.21 144.521 20.0347 145.665 22.0796 146.093C22.5239 146.187 22.3176 146.861 21.8759 146.769Z" fill="white"/>
<path d="M25.3522 165.821C29.2273 163.368 32.0355 159.545 33.2168 155.113C33.3334 154.674 34.0088 154.878 33.8923 155.317C32.6544 159.926 29.724 163.899 25.6859 166.443C25.3008 166.685 24.9693 166.062 25.3522 165.821Z" fill="white"/>
<path d="M28.2654 127.237C29.076 127.596 29.9631 127.749 30.8472 127.681C31.7313 127.613 32.5847 127.326 33.3307 126.847C33.7125 126.6 34.0436 127.223 33.6643 127.469C32.8377 127.995 31.8948 128.31 30.9182 128.387C29.9415 128.464 28.9608 128.301 28.0617 127.912C27.9739 127.883 27.9006 127.821 27.8568 127.739C27.813 127.658 27.8019 127.562 27.8258 127.473C27.8532 127.383 27.9148 127.309 27.9971 127.264C28.0794 127.22 28.1758 127.21 28.2654 127.237H28.2654Z" fill="white"/>
<path d="M83.2864 142.03C83.0524 142.191 82.8184 142.352 82.5842 142.519C79.4493 144.699 76.4966 147.131 73.7555 149.79C73.5403 149.992 73.3253 150.2 73.1163 150.408C66.5805 156.884 61.3039 164.517 57.5546 172.919C56.0657 176.264 54.8334 179.717 53.8685 183.249C52.5362 188.127 51.4796 193.521 48.6957 197.555C48.41 197.979 48.0983 198.385 47.7624 198.771L21.6716 199.451C21.6115 199.423 21.5513 199.401 21.4909 199.372L20.4504 199.447C20.4875 199.262 20.5299 199.07 20.5669 198.884C20.588 198.777 20.6148 198.669 20.6359 198.561C20.6517 198.489 20.6679 198.417 20.6781 198.351C20.6833 198.327 20.6888 198.303 20.6941 198.285C20.7043 198.22 20.7208 198.16 20.7312 198.1C20.9653 197.027 21.2073 195.955 21.4573 194.882C21.4572 194.876 21.4572 194.876 21.4628 194.87C23.3885 186.701 26.0131 178.62 29.7807 171.195C29.8941 170.972 30.0071 170.743 30.1324 170.519C31.8493 167.182 33.836 163.99 36.0728 160.976C37.3029 159.33 38.6156 157.747 40.0057 156.233C43.6052 152.33 47.7964 149.016 52.4256 146.415C61.6546 141.23 72.439 139.054 82.5184 141.812C82.7762 141.882 83.0285 141.953 83.2864 142.03Z" fill="#F0F0F0"/>
<path d="M83.2364 142.363C70.4465 145.247 58.4954 152.236 49.8652 162.132C47.9994 164.272 46.2928 166.605 45.1773 169.23C44.1096 171.798 43.7489 174.604 44.1327 177.358C44.439 179.933 45.0504 182.532 44.7254 185.136C44.3828 187.882 42.8174 190.161 40.5821 191.741C37.847 193.675 34.5804 194.51 31.3575 195.216C27.7792 195.999 24.05 196.756 21.1071 199.081C20.7505 199.363 20.3343 198.793 20.6903 198.512C25.8105 194.467 32.8299 195.105 38.4708 192.197C41.1029 190.84 43.342 188.682 43.9246 185.681C44.4341 183.058 43.8058 180.378 43.4732 177.773C43.1239 175.038 43.2445 172.397 44.1984 169.788C45.1743 167.118 46.7932 164.714 48.5962 162.536C52.7214 157.628 57.5927 153.399 63.0316 150.004C69.2175 146.095 76.0264 143.274 83.1639 141.661C83.6057 141.561 83.6753 142.264 83.2364 142.363H83.2364Z" fill="white"/>
<path d="M52.5008 158.768C51.034 157.07 50.2183 154.907 50.1996 152.663C50.1808 150.42 50.9601 148.243 52.3983 146.521C52.6905 146.173 53.2441 146.611 52.9515 146.959C51.6093 148.56 50.8835 150.588 50.9053 152.677C50.9271 154.766 51.6948 156.778 53.0701 158.351C53.3686 158.693 52.7975 159.108 52.5008 158.768Z" fill="white"/>
<path d="M43.8056 176.073C48.3765 176.447 52.9206 175.085 56.5319 172.258C56.8894 171.978 57.3057 172.547 56.9486 172.828C53.1852 175.762 48.4534 177.17 43.6977 176.77C43.2444 176.732 43.3548 176.035 43.8056 176.073H43.8056Z" fill="white"/>
<path d="M69.3617 147.02C69.7924 147.795 70.4089 148.451 71.1557 148.929C71.9026 149.407 72.7565 149.692 73.6407 149.758C74.0942 149.791 73.9834 150.488 73.5328 150.455C72.5562 150.377 71.6136 150.062 70.7872 149.535C69.9609 149.009 69.276 148.288 68.7924 147.436C68.7401 147.36 68.7189 147.266 68.7331 147.175C68.7472 147.083 68.7957 147 68.8687 146.943C68.9444 146.889 69.0386 146.866 69.1309 146.88C69.2232 146.894 69.3062 146.945 69.3617 147.02Z" fill="white"/>
<path d="M131.519 58.8297C131.519 58.8297 126.865 78.4795 132.553 78.4795C138.241 78.4795 151.685 56.2442 151.685 56.2442L147.031 50.5562L138.678 62.1535L138.241 56.2442L131.519 58.8297Z" fill="#A0616A"/>
<path d="M150.445 57.0987C152.946 57.0987 154.973 55.0717 154.973 52.5712C154.973 50.0707 152.946 48.0437 150.445 48.0437C147.945 48.0437 145.918 50.0707 145.918 52.5712C145.918 55.0717 147.945 57.0987 150.445 57.0987Z" fill="#A0616A"/>
<path d="M127.573 192.661L133.599 192.661L136.466 169.415L127.571 169.416L127.573 192.661Z" fill="#A0616A"/>
<path d="M127.36 198.948L145.893 198.947V198.713C145.893 196.8 145.133 194.965 143.78 193.613C142.427 192.26 140.592 191.5 138.679 191.5H138.679L135.294 188.932L128.978 191.5L127.36 191.5L127.36 198.948Z" fill="#2F2E41"/>
<path d="M62.7471 185.142L68.1393 187.833L81.0851 168.314L73.1265 164.343L62.7471 185.142Z" fill="#A0616A"/>
<path d="M59.7495 190.673L76.3317 198.948L76.4363 198.738C77.2905 197.026 77.4298 195.046 76.8235 193.231C76.2172 191.417 74.915 189.917 73.2034 189.063L73.203 189.063L71.321 185.253L64.5227 184.731L63.0752 184.009L59.7495 190.673Z" fill="#2F2E41"/>
<path d="M198.855 198.971H0.393799V199.751H198.855V198.971Z" fill="#CCCCCC"/>
<path d="M88.6095 94.4774C88.6095 94.4774 86.2011 123.435 85.684 129.641C85.3294 133.53 84.46 137.356 83.0985 141.017C83.0985 141.017 82.0643 143.085 82.0643 145.153L70.3434 166.455C70.3434 166.455 66.7617 169.088 67.2788 171.156C67.7959 173.224 65.1194 174.465 65.1194 174.465L77.4626 176.844C77.4626 176.844 76.9455 175.293 78.4968 174.776C80.0481 174.259 81.2829 169.774 81.2829 169.774L98.6115 141.534L111.022 115.679C111.022 115.679 118.261 138.948 119.812 141.534C119.812 141.534 125.501 170.491 126.535 173.077C127.569 175.662 128.086 175.662 127.569 176.696C127.052 177.731 127.052 178.765 127.569 179.282C128.086 179.799 137.911 179.282 137.911 179.282L135.325 142.568L130.672 98.6146L106.885 91.3752L88.6095 94.4774Z" fill="#2F2E41"/>
<path d="M111.898 25.3473C117.895 25.3473 122.757 20.4855 122.757 14.4882C122.757 8.49092 117.895 3.62915 111.898 3.62915C105.901 3.62915 101.039 8.49092 101.039 14.4882C101.039 20.4855 105.901 25.3473 111.898 25.3473Z" fill="#A0616A"/>
<path d="M131.706 41.2166L118.779 33.3846C118.779 33.3846 118.421 28.5211 114.737 28.2922C112.888 28.1773 110.113 28.0017 105.949 27.7332C105.069 27.6764 104.475 32.4913 103.466 32.426L89.821 36.0456L91.8894 71.2083C91.8894 71.2083 88.7868 85.17 89.821 87.7555C90.8552 90.3409 87.2355 91.3751 88.2697 91.8922C89.3039 92.4093 88.2697 96.029 88.2697 96.029C88.2697 96.029 108.437 106.371 130.672 98.6145L128.603 91.8922C128.885 91.0135 128.938 90.0775 128.757 89.1727C128.576 88.2678 128.167 87.4241 127.569 86.7212C127.569 86.7212 129.638 83.6187 127.052 81.0332C127.052 81.0332 128.086 76.3793 125.501 74.3109L124.984 67.0715L126.535 63.4518L131.706 41.2166Z" fill="#E6E6E6"/>
<path d="M102.475 20.6917L102.171 19.9866C102.132 19.8955 98.2919 10.817 101.696 5.21718C103.272 2.62472 106.137 1.16107 110.212 0.867221C116.587 0.406208 120.951 1.91864 123.185 5.35934C123.56 5.94247 123.77 6.61575 123.794 7.30838C123.819 8.00101 123.656 8.6874 123.323 9.2954C122.991 9.9034 122.5 10.4105 121.904 10.7635C121.307 11.1164 120.627 11.3022 119.934 11.3012H119.848L118.677 9.78003L118.609 9.92797C118.184 10.8456 117.21 11.3479 116.069 11.2379C115.875 11.224 115.703 11.3915 115.565 11.7499C115.519 11.9067 115.431 12.0481 115.311 12.1593C115.191 12.2705 115.044 12.3473 114.884 12.3817C114.041 12.5458 112.839 11.484 112.301 10.9548C112.281 11.0766 112.234 11.1925 112.164 11.2947C112.095 11.3969 112.004 11.483 111.899 11.5472C111.332 11.8743 110.45 11.4471 110.197 11.311C108.18 11.7396 106.874 11.6249 106.315 10.9708C105.936 13.6537 105.122 18.4828 104.146 18.7505C104.044 18.774 103.937 18.764 103.841 18.7221C103.745 18.6802 103.665 18.6085 103.613 18.5177C103.378 18.2126 103.168 18.0606 103.037 18.1033C102.72 18.2043 102.532 19.2498 102.505 19.9246L102.475 20.6917Z" fill="#2F2E41"/>
<path d="M126.018 41.7338L131.176 40.8958C134.892 44.466 137.423 49.0901 138.428 54.1442C139.979 62.4177 140.496 63.969 140.496 63.969L128.086 67.0716L121.364 54.1442L126.018 41.7338Z" fill="#E6E6E6"/>
<path d="M103.129 52.4953L99.9409 92.9062L181.291 99.3234L184.479 58.9124L103.129 52.4953Z" fill="white"/>
<path d="M111.82 55.626C109.829 54.2043 107.301 54.1015 106.336 54.122C106.63 55.0415 107.546 57.3997 109.536 58.822C111.532 60.2473 114.057 60.347 115.021 60.3271C114.726 59.4079 113.811 57.0487 111.82 55.626Z" fill="#B87400"/>
<path d="M119.673 81.3403L106.611 80.3099C106.225 80.2795 105.837 80.3253 105.469 80.4449C105.1 80.5645 104.759 80.7554 104.465 81.0068C104.17 81.2582 103.928 81.5651 103.752 81.91C103.577 82.255 103.47 82.6312 103.44 83.0171C103.41 83.4031 103.455 83.7913 103.575 84.1595C103.695 84.5278 103.886 84.8688 104.137 85.1633C104.388 85.4577 104.695 85.6998 105.04 85.8756C105.385 86.0514 105.761 86.1576 106.147 86.188L119.21 87.2185C119.989 87.28 120.761 87.0293 121.356 86.5216C121.951 86.0139 122.319 85.2907 122.381 84.5112C122.442 83.7318 122.191 82.9598 121.684 82.3651C121.176 81.7704 120.453 81.4018 119.673 81.3403Z" fill="#B87400"/>
<path d="M181.272 54.9844L108.034 49.2066C107.183 49.1395 106.326 49.2409 105.513 49.5049C104.701 49.7689 103.948 50.1904 103.298 50.7454C102.648 51.3003 102.114 51.9778 101.726 52.7391C101.338 53.5004 101.104 54.3307 101.037 55.1826L98.2205 90.863C98.0851 92.5838 98.6387 94.288 99.7595 95.6008C100.88 96.9136 102.477 97.7275 104.197 97.8637L177.435 103.641C178.287 103.709 179.143 103.607 179.956 103.343C180.769 103.079 181.521 102.658 182.171 102.103C182.821 101.548 183.355 100.87 183.743 100.109C184.131 99.3476 184.365 98.5173 184.432 97.6655L187.109 63.7527L187.163 63.0598L187.248 61.9817C187.315 61.1299 187.213 60.2731 186.949 59.4605C186.685 58.6478 186.264 57.8951 185.709 57.2453C185.154 56.5956 184.477 56.0615 183.715 55.6735C182.954 55.2856 182.124 55.0514 181.272 54.9844ZM179.109 86.0283L178.645 91.9066C178.56 92.9448 178.068 93.9072 177.275 94.5833C176.483 95.2595 175.455 95.5944 174.417 95.5149L164.619 94.7429C163.58 94.6581 162.618 94.1656 161.942 93.3732C161.266 92.5809 160.931 91.553 161.01 90.5144L161.474 84.6361C161.559 83.598 162.052 82.6358 162.844 81.9597C163.637 81.2836 164.664 80.9486 165.703 81.0277L175.497 81.8006C176.536 81.8858 177.498 82.3781 178.175 83.1701C178.851 83.9621 179.187 84.9895 179.109 86.0283ZM102.792 82.9631C102.868 82.0119 103.318 81.1297 104.044 80.51C104.769 79.8904 105.711 79.5839 106.663 79.6577L119.725 80.6888C120.196 80.7252 120.657 80.8543 121.078 81.0686C121.5 81.2829 121.876 81.5783 122.184 81.9378C122.491 82.2973 122.725 82.714 122.872 83.164C123.019 83.6139 123.075 84.0884 123.038 84.5602C123.002 85.032 122.872 85.492 122.657 85.9137C122.443 86.3355 122.147 86.7109 121.787 87.0183C121.428 87.3258 121.011 87.5593 120.561 87.7056C120.111 87.8519 119.636 87.908 119.164 87.8708L119.158 87.8726L106.096 86.8415C105.624 86.8042 105.164 86.6742 104.743 86.4591C104.321 86.2439 103.946 85.9477 103.639 85.5875C103.333 85.2272 103.1 84.81 102.954 84.3597C102.809 83.9094 102.754 83.4348 102.792 82.9631ZM105.588 53.8891L105.499 53.5237L105.875 53.4892C106.022 53.4735 109.496 53.1615 112.201 55.0936C114.906 57.0256 115.735 60.4154 115.771 60.5572L115.857 60.9234L115.482 60.9612C114.95 61.0008 114.415 60.9973 113.884 60.9507C112.193 60.8517 110.56 60.3001 109.155 59.3535C106.45 57.4215 105.621 54.0317 105.588 53.8891Z" fill="#B87400"/>
<path d="M168.121 89.9267L163.876 89.5918C163.573 89.5684 163.273 89.6662 163.042 89.8636C162.812 90.061 162.669 90.342 162.645 90.6447C162.621 90.9475 162.718 91.2474 162.915 91.4786C163.112 91.7097 163.393 91.8533 163.695 91.8777L167.941 92.2126C168.244 92.236 168.543 92.1382 168.774 91.9408C169.005 91.7434 169.148 91.4624 169.172 91.1596C169.196 90.8568 169.099 90.5569 168.901 90.3258C168.704 90.0946 168.424 89.9511 168.121 89.9267Z" fill="#B87400"/>
<path d="M175.959 90.545L171.713 90.2101C171.411 90.187 171.111 90.2849 170.88 90.4823C170.65 90.6797 170.507 90.9605 170.483 91.2632C170.459 91.5658 170.556 91.8656 170.753 92.0967C170.95 92.3278 171.23 92.4714 171.533 92.4961L175.778 92.8309C176.081 92.8541 176.381 92.7562 176.611 92.5588C176.842 92.3614 176.985 92.0806 177.009 91.7779C177.033 91.4753 176.935 91.1755 176.739 90.9444C176.542 90.7133 176.261 90.5696 175.959 90.545Z" fill="#B87400"/>
<path d="M168.353 86.9876L164.108 86.6527C163.805 86.6296 163.505 86.7275 163.275 86.9249C163.044 87.1223 162.901 87.4031 162.877 87.7058C162.853 88.0084 162.951 88.3082 163.147 88.5393C163.344 88.7704 163.625 88.9141 163.927 88.9387L168.173 89.2736C168.475 89.2969 168.775 89.1992 169.006 89.0018C169.237 88.8043 169.38 88.5234 169.404 88.2206C169.428 87.9178 169.33 87.6179 169.133 87.3868C168.936 87.1556 168.656 87.012 168.353 86.9876Z" fill="#B87400"/>
<path d="M176.19 87.6059L171.945 87.271C171.642 87.2476 171.343 87.3454 171.112 87.5428C170.881 87.7402 170.738 88.0212 170.714 88.3239C170.69 88.6267 170.787 88.9266 170.984 89.1578C171.181 89.3889 171.462 89.5325 171.765 89.5569L176.01 89.8918C176.313 89.9152 176.613 89.8174 176.843 89.62C177.074 89.4226 177.217 89.1416 177.241 88.8388C177.265 88.536 177.168 88.2361 176.971 88.005C176.774 87.7738 176.493 87.6303 176.19 87.6059Z" fill="#B87400"/>
<path d="M168.585 84.0485L164.339 83.7136C164.037 83.6902 163.737 83.788 163.506 83.9854C163.275 84.1828 163.132 84.4638 163.108 84.7666C163.084 85.0694 163.182 85.3693 163.379 85.6004C163.576 85.8316 163.856 85.9751 164.159 85.9995L168.404 86.3344C168.707 86.3576 169.007 86.2597 169.237 86.0623C169.468 85.8649 169.611 85.584 169.635 85.2814C169.659 84.9787 169.561 84.679 169.365 84.4479C169.168 84.2167 168.887 84.0731 168.585 84.0485Z" fill="#B87400"/>
<path d="M176.422 84.6668L172.177 84.3319C171.874 84.3088 171.575 84.4067 171.344 84.6041C171.113 84.8015 170.971 85.0823 170.947 85.385C170.923 85.6876 171.02 85.9874 171.217 86.2185C171.414 86.4496 171.694 86.5933 171.997 86.6179L176.242 86.9528C176.545 86.9759 176.844 86.878 177.075 86.6806C177.306 86.4832 177.448 86.2024 177.472 85.8997C177.496 85.5971 177.399 85.2973 177.202 85.0662C177.005 84.8351 176.725 84.6915 176.422 84.6668Z" fill="#B87400"/>
<path d="M99.9486 66.4406L99.894 67.1353L185.865 73.8887L185.92 73.194L99.9486 66.4406Z" fill="white"/>
<path d="M187.163 63.0598L187.109 63.7528L184.117 63.5181L152.239 61.0141L152.296 60.3203L184.171 62.8251L187.163 63.0598Z" fill="#3F3D56"/>
<path d="M82.0644 55.6955C82.0644 55.6955 77.4105 75.3452 83.0986 75.3452C88.7867 75.3452 102.231 53.1099 102.231 53.1099L97.5773 47.4219L89.2241 59.0192L88.7867 53.11L82.0644 55.6955Z" fill="#A0616A"/>
<path d="M100.991 53.9642C103.492 53.9642 105.519 51.9371 105.519 49.4367C105.519 46.9362 103.492 44.9092 100.991 44.9092C98.4906 44.9092 96.4636 46.9362 96.4636 49.4367C96.4636 51.9371 98.4906 53.9642 100.991 53.9642Z" fill="#A0616A"/>
<path d="M93.5879 39.1482L90.4853 36.0457C90.4853 36.0457 84.2801 39.6653 83.763 43.285C83.2459 46.9047 80.6604 58.2809 80.6604 58.2809L90.2267 59.0565L93.3293 54.4026L93.5879 39.1482Z" fill="#E6E6E6"/>
</g>
<defs>
<clipPath id="clip0_66_755">
<rect width="199.213" height="200" fill="white" transform="translate(0.393799)"/>
</clipPath>
</defs>
</svg>
