<svg width="100" height="100" viewBox="0 0 100 100" fill="none" xmlns="http://www.w3.org/2000/svg">
<rect width="100" height="100" fill="#9D6B53"/>
<path d="M35.9375 28.1771C32.2266 28.0795 28.0273 29.056 23.6328 31.0092C22.5586 31.4975 21.875 32.5717 21.875 33.8412V68.8021C21.875 69.8764 22.9492 70.6576 24.0234 70.1693C36.3281 64.4076 45.5078 71.2435 45.8984 71.5365C46.1914 71.7318 46.4844 71.8295 46.875 71.8295C48.0469 71.8295 48.4375 70.7553 48.4375 70.3646V32.8646C48.4375 32.2787 48.1445 31.7904 47.7539 31.4975C47.5586 31.3998 42.9687 28.2748 35.9375 28.1771ZM76.2695 31.0092C71.875 29.056 67.5781 28.0795 63.9648 28.1771C56.9336 28.2748 52.4414 31.3998 52.1484 31.4975C51.7578 31.7904 51.5625 32.2787 51.5625 32.8646V70.267C51.5625 70.7553 51.8555 71.8295 53.125 71.8295C53.418 71.8295 53.7109 71.7318 54.0039 71.5365C54.3945 71.2435 63.5742 64.4076 75.8789 70.1693C76.9531 70.6576 78.125 69.8764 78.125 68.8021V33.8412C78.0273 32.5717 77.3437 31.4975 76.2695 31.0092Z" fill="white"/>
</svg>
